<svg xmlns="http://www.w3.org/2000/svg" width="360" height="360" viewBox="0 0 360 360" version="1.1">
	<path d="M 157.500 79.634 C 141.786 80.633, 97.228 86.586, 90.973 88.521 C 89.845 88.870, 89.547 90.044, 89.831 93.021 L 90.215 97.049 100.357 96.400 C 112.286 95.636, 117.281 97.047, 119.116 101.702 C 120.656 105.606, 119.649 194.596, 117.448 249.172 C 116.501 272.642, 115.970 292.480, 116.268 293.257 C 116.735 294.472, 118.325 294.475, 127.626 293.281 C 133.574 292.517, 138.680 291.654, 138.971 291.363 C 139.452 290.882, 140.430 260.426, 143.993 135 C 144.708 109.849, 145.598 92.253, 146.176 91.894 C 148.264 90.597, 165.397 90.075, 172.671 91.087 C 183.278 92.562, 190.041 95.332, 195.902 100.601 C 206.812 110.411, 210.846 129.551, 205.999 148.504 C 203.566 158.017, 200.608 163.263, 194.506 168.887 C 186.483 176.283, 169.453 182.768, 157.185 183.100 C 155.158 183.155, 152.463 183.492, 151.196 183.850 C 148.977 184.476, 149.293 185.200, 159.779 203.500 C 182.477 243.113, 201.512 270.561, 215.619 284.019 C 227.442 295.299, 233.607 297.426, 246.500 294.673 C 254.223 293.024, 269.875 287.581, 272.304 285.700 C 273.686 284.628, 273.693 284.111, 272.365 280.866 L 270.879 277.232 266.189 278.690 C 259.311 280.828, 249.282 279.946, 243.825 276.724 C 233.417 270.578, 220.728 256.262, 205.070 233 C 194.755 217.676, 177.668 189.999, 178.196 189.471 C 178.368 189.299, 182.305 187.773, 186.947 186.079 C 210.489 177.487, 226.721 161.012, 231.463 140.897 C 233.356 132.864, 233.410 119.129, 231.575 112.236 C 227.398 96.547, 214.207 85.509, 195 81.632 C 187.075 80.033, 167.570 78.993, 157.500 79.634" stroke="none" fill="black" fill-rule="evenodd"/>
</svg>