<?xml version="1.0" encoding="utf-8"?>
<!-- Generator: Adobe Illustrator 16.0.0, SVG Export Plug-In . SVG Version: 6.00 Build 0)  -->
<!DOCTYPE svg PUBLIC "-//W3C//DTD SVG 1.1 Basic//EN" "http://www.w3.org/Graphics/SVG/1.1/DTD/svg11-basic.dtd">
<svg version="1.1" baseProfile="basic" id="圖層_1"
	 xmlns="http://www.w3.org/2000/svg" xmlns:xlink="http://www.w3.org/1999/xlink" x="0px" y="0px" width="152.75px" height="37px"
	 viewBox="0 0 152.75 37" xml:space="preserve">
<path fill="#292A40" d="M129.342,36.385c0.07-0.246,0.135-0.551,0.193-0.914c0.07-0.363,0.129-0.814,0.176-1.354
	s0.082-1.178,0.105-1.916c0.023-0.75,0.035-1.623,0.035-2.619V18.139c0-0.996-0.012-1.863-0.035-2.602
	c-0.023-0.75-0.059-1.395-0.105-1.934c-0.047-0.551-0.105-1.008-0.176-1.371c-0.059-0.363-0.123-0.668-0.193-0.914v-0.07h4.219v0.07
	c-0.07,0.246-0.141,0.551-0.211,0.914c-0.059,0.363-0.111,0.82-0.158,1.371c-0.035,0.539-0.07,1.184-0.105,1.934
	c-0.023,0.738-0.035,1.605-0.035,2.602v3.92l10.266-8.385c1.148-0.938,1.723-1.746,1.723-2.426h4.939v0.07
	c-0.691,0.164-1.395,0.48-2.109,0.949c-0.703,0.457-1.453,1.02-2.25,1.688l-9.07,7.594l10.916,11.988
	c0.457,0.469,0.844,0.861,1.16,1.178c0.328,0.305,0.615,0.563,0.861,0.773c0.246,0.199,0.469,0.369,0.668,0.51
	c0.211,0.129,0.428,0.258,0.65,0.387v0.07h-5.15c-0.047-0.105-0.129-0.24-0.246-0.404c-0.105-0.164-0.234-0.334-0.387-0.51
	c-0.141-0.176-0.299-0.357-0.475-0.545c-0.164-0.188-0.322-0.363-0.475-0.527l-11.021-12.094v7.207c0,0.996,0.012,1.869,0.035,2.619
	c0.035,0.738,0.07,1.377,0.105,1.916c0.047,0.539,0.1,0.99,0.158,1.354c0.07,0.363,0.141,0.668,0.211,0.914v0.07h-4.219V36.385z
	 M113.341,35.418c1.301,0,2.49-0.234,3.568-0.703s2.004-1.148,2.777-2.039c0.785-0.891,1.395-1.975,1.828-3.252
	c0.434-1.289,0.65-2.748,0.65-4.377c0-1.805-0.211-3.475-0.633-5.01c-0.41-1.547-1.025-2.883-1.846-4.008
	c-0.82-1.137-1.846-2.021-3.076-2.654c-1.219-0.645-2.643-0.967-4.271-0.967c-1.301,0-2.49,0.234-3.568,0.703
	c-1.078,0.457-2.01,1.125-2.795,2.004c-0.773,0.879-1.377,1.957-1.811,3.234s-0.65,2.73-0.65,4.359c0,1.793,0.205,3.469,0.615,5.027
	c0.41,1.547,1.025,2.889,1.846,4.025s1.846,2.033,3.076,2.689C110.282,35.096,111.712,35.418,113.341,35.418z M112.339,10.826
	c1.957,0,3.762,0.322,5.414,0.967c1.664,0.633,3.1,1.529,4.307,2.689c1.207,1.148,2.15,2.531,2.83,4.148s1.02,3.404,1.02,5.361
	c0,1.113-0.129,2.209-0.387,3.287s-0.639,2.098-1.143,3.059c-0.492,0.961-1.102,1.852-1.828,2.672
	c-0.727,0.809-1.559,1.512-2.496,2.109c-0.926,0.586-1.951,1.043-3.076,1.371c-1.125,0.34-2.338,0.51-3.639,0.51
	c-1.957,0-3.768-0.311-5.432-0.932c-1.652-0.633-3.082-1.523-4.289-2.672s-2.15-2.525-2.83-4.131c-0.68-1.617-1.02-3.41-1.02-5.379
	c0-1.113,0.129-2.209,0.387-3.287s0.633-2.104,1.125-3.076c0.504-0.973,1.113-1.863,1.828-2.672c0.727-0.82,1.553-1.529,2.479-2.127
	c0.938-0.598,1.969-1.061,3.094-1.389C109.819,10.996,111.038,10.826,112.339,10.826z M84.842,35.418
	c1.301,0,2.49-0.234,3.568-0.703s2.004-1.148,2.777-2.039c0.785-0.891,1.395-1.975,1.828-3.252c0.434-1.289,0.65-2.748,0.65-4.377
	c0-1.805-0.211-3.475-0.633-5.01c-0.41-1.547-1.025-2.883-1.846-4.008c-0.82-1.137-1.846-2.021-3.076-2.654
	c-1.219-0.645-2.643-0.967-4.271-0.967c-1.301,0-2.49,0.234-3.568,0.703c-1.078,0.457-2.01,1.125-2.795,2.004
	c-0.773,0.879-1.377,1.957-1.811,3.234s-0.65,2.73-0.65,4.359c0,1.793,0.205,3.469,0.615,5.027c0.41,1.547,1.025,2.889,1.846,4.025
	s1.846,2.033,3.076,2.689C81.783,35.096,83.213,35.418,84.842,35.418z M83.84,10.826c1.957,0,3.762,0.322,5.414,0.967
	c1.664,0.633,3.1,1.529,4.307,2.689c1.207,1.148,2.15,2.531,2.83,4.148s1.02,3.404,1.02,5.361c0,1.113-0.129,2.209-0.387,3.287
	s-0.639,2.098-1.143,3.059c-0.492,0.961-1.102,1.852-1.828,2.672c-0.727,0.809-1.559,1.512-2.496,2.109
	c-0.926,0.586-1.951,1.043-3.076,1.371C87.355,36.83,86.143,37,84.842,37c-1.957,0-3.768-0.311-5.432-0.932
	c-1.652-0.633-3.082-1.523-4.289-2.672s-2.15-2.525-2.83-4.131c-0.68-1.617-1.02-3.41-1.02-5.379c0-1.113,0.129-2.209,0.387-3.287
	s0.633-2.104,1.125-3.076c0.504-0.973,1.113-1.863,1.828-2.672c0.727-0.82,1.553-1.529,2.479-2.127
	c0.938-0.598,1.969-1.061,3.094-1.389C81.32,10.996,82.539,10.826,83.84,10.826z M68.911,15.115l-0.158,0.07
	c-0.914-0.844-2.016-1.518-3.305-2.021c-1.277-0.504-2.684-0.756-4.219-0.756c-1.477,0-2.83,0.234-4.061,0.703
	c-1.23,0.457-2.291,1.125-3.182,2.004c-0.879,0.879-1.564,1.957-2.057,3.234s-0.738,2.73-0.738,4.359
	c0,1.793,0.234,3.469,0.703,5.027c0.469,1.547,1.166,2.889,2.092,4.025s2.08,2.033,3.463,2.689c1.395,0.645,3.018,0.967,4.869,0.967
	c0.668,0,1.336-0.07,2.004-0.211s1.307-0.346,1.916-0.615c0.621-0.281,1.201-0.615,1.74-1.002c0.551-0.398,1.049-0.85,1.494-1.354
	l0.193,0.123l-1.406,3.586c-0.879,0.34-1.852,0.598-2.918,0.773C64.288,36.906,63.222,37,62.144,37
	c-2.168,0-4.154-0.311-5.959-0.932c-1.793-0.633-3.34-1.523-4.641-2.672c-1.289-1.148-2.297-2.525-3.023-4.131
	c-0.715-1.617-1.072-3.41-1.072-5.379c0-1.113,0.141-2.209,0.422-3.287c0.293-1.078,0.715-2.104,1.266-3.076s1.23-1.863,2.039-2.672
	c0.809-0.82,1.729-1.529,2.76-2.127c1.043-0.598,2.186-1.061,3.428-1.389c1.254-0.34,2.607-0.51,4.061-0.51
	c2.262,0,4.359,0.346,6.293,1.037L68.911,15.115z M31.412,11.248c1.465,0,2.918-0.006,4.359-0.018
	c1.453-0.012,2.783-0.023,3.99-0.035c1.207-0.023,2.238-0.053,3.094-0.088s1.436-0.082,1.74-0.141l-0.861,2.338
	c-0.387-0.105-0.838-0.199-1.354-0.281c-0.445-0.07-0.99-0.135-1.635-0.193c-0.633-0.07-1.365-0.105-2.197-0.105
	c-0.281,0-0.621,0.012-1.02,0.035c-0.387,0.012-0.762,0.029-1.125,0.053c-0.422,0.023-0.85,0.047-1.283,0.07v9.598
	c1.207-0.012,2.297-0.047,3.27-0.105s1.799-0.117,2.479-0.176c0.797-0.07,1.5-0.152,2.109-0.246l-0.545,2.549
	c-0.809-0.105-1.635-0.205-2.479-0.299c-0.727-0.082-1.518-0.152-2.373-0.211c-0.855-0.07-1.676-0.105-2.461-0.105v11.021
	c1.383,0,2.654-0.059,3.814-0.176s2.174-0.252,3.041-0.404c1.008-0.164,1.928-0.357,2.76-0.58l-0.51,2.848
	c-0.141-0.012-0.352-0.023-0.633-0.035s-0.598-0.023-0.949-0.035c-0.34-0.012-0.703-0.023-1.09-0.035
	c-0.375,0-0.732-0.006-1.072-0.018c-0.34,0-0.645-0.006-0.914-0.018c-0.258,0-0.445,0-0.563,0h-7.594v-0.07
	c0.07-0.246,0.135-0.551,0.193-0.914c0.07-0.363,0.129-0.814,0.176-1.354s0.082-1.178,0.105-1.916
	c0.023-0.75,0.035-1.623,0.035-2.619V18.139c0-0.996-0.012-1.863-0.035-2.602c-0.023-0.75-0.059-1.395-0.105-1.934
	c-0.047-0.551-0.105-1.008-0.176-1.371c-0.059-0.363-0.123-0.668-0.193-0.914V11.248z"/>
<g>
	<path fill="none" d="M13.938,5.266c-0.797-0.375-1.727-0.563-2.789-0.563c-0.672,0-1.258,0.031-1.758,0.094
		c-0.5,0.047-0.922,0.102-1.266,0.164C7.719,5.039,7.383,5.125,7.117,5.219v15.516c1.531,0.281,2.93,0.32,4.195,0.117
		c1.281-0.203,2.375-0.648,3.281-1.336c0.922-0.688,1.633-1.617,2.133-2.789c0.516-1.188,0.773-2.625,0.773-4.313
		c0-1.172-0.133-2.234-0.398-3.188s-0.664-1.758-1.195-2.414C15.391,6.141,14.734,5.625,13.938,5.266z"/>
	<path fill="none" d="M6.117,21.382v-0.647V5.219V4.521C5.818,4.541,5.536,4.555,5.289,4.555c-0.001,0-0.001,0-0.002,0
		c0,0-0.001,0-0.002,0c-0.001,0-0.001,0-0.002,0s-0.001,0-0.002,0c0,0-0.001,0-0.002,0c-0.001,0-0.002,0-0.002,0
		c-0.001,0-0.001,0-0.002,0c0,0-0.001,0-0.002,0c-0.001,0-0.002,0-0.002,0c-0.001,0-0.001,0-0.002,0c0,0-0.001,0-0.002,0
		c0,0-0.001,0-0.002,0c-0.001,0-0.001,0-0.002,0c0,0-0.001,0-0.002,0c0,0-0.001,0-0.002,0c-0.001,0-0.001,0-0.002,0
		s-0.001,0-0.002,0c0,0-0.001,0-0.002,0c-0.001,0-0.001,0-0.002,0s-0.001,0-0.002,0c0,0-0.001,0-0.002,0c-0.001,0-0.001,0-0.002,0
		s-0.001,0-0.002,0c0,0-0.001,0-0.002,0c-0.001,0-0.002,0-0.002,0c-0.001,0-0.001,0-0.002,0c0,0-0.001,0-0.002,0
		c-0.001,0-0.002,0-0.002,0c-0.001,0-0.001,0-0.002,0c0,0-0.001,0-0.002,0c-0.001,0-0.002,0-0.002,0c-0.001,0-0.001,0-0.002,0
		c0,0-0.001,0-0.002,0c-0.001,0-0.002,0-0.002,0c-0.001,0-0.001,0-0.002,0c0,0-0.001,0-0.002,0c0,0-0.001,0-0.002,0
		c-0.001,0-0.001,0-0.002,0c0,0-0.001,0-0.002,0c0,0-0.001,0-0.002,0c-0.001,0-0.001,0-0.002,0c0,0-0.001,0-0.002,0
		c0,0-0.001,0-0.002,0c-0.001,0-0.001,0-0.002,0c0,0-0.001,0-0.002,0c0,0-0.001,0-0.002,0c-0.001,0-0.001,0-0.002,0
		c0,0-0.001,0-0.002,0c0,0-0.001,0-0.002,0c-0.001,0-0.001,0-0.002,0c0,0-0.001,0-0.002,0c0,0-0.001,0-0.002,0
		c-0.001,0-0.001,0-0.002,0c0,0-0.001,0-0.002,0c0,0-0.001,0-0.002,0c-0.001,0-0.001,0-0.002,0c0,0-0.001,0-0.002,0
		c0,0-0.001,0-0.002,0c-0.001,0-0.001,0-0.002,0c0,0-0.001,0-0.002,0c0,0-0.001,0-0.002,0c-0.001,0-0.001,0-0.002,0
		c0,0-0.001,0-0.002,0c0,0-0.001,0-0.002,0c-0.001,0-0.001,0-0.002,0c0,0-0.001,0-0.002,0c0,0-0.001,0-0.002,0
		c-0.001,0-0.001,0-0.002,0c0,0-0.001,0-0.002,0c0,0-0.001,0-0.002,0c-0.001,0-0.001,0-0.002,0c0,0-0.001,0-0.002,0
		c0,0-0.001,0-0.002,0c-0.001,0-0.001,0-0.002,0c0,0-0.001,0-0.002,0c0,0-0.001,0-0.002,0c-0.001,0-0.001,0-0.002,0
		c0,0-0.001,0-0.002,0c0,0-0.001,0-0.002,0c-0.001,0-0.001,0-0.002,0c0,0-0.001,0-0.002,0c-0.001,0-0.002,0-0.002,0
		c-0.001,0-0.001,0-0.002,0c0,0-0.001,0-0.002,0c-0.001,0-0.002,0-0.002,0c-0.001,0-0.001,0-0.002,0c0,0-0.001,0-0.002,0
		c-0.001,0-0.002,0-0.002,0c-0.001,0-0.001,0-0.002,0c0,0-0.001,0-0.002,0c-0.001,0-0.001,0-0.002,0s-0.001,0-0.002,0
		c0,0-0.001,0-0.002,0c-0.001,0-0.001,0-0.002,0s-0.001,0-0.002,0c0,0-0.001,0-0.002,0c-0.001,0-0.001,0-0.002,0s-0.001,0-0.002,0
		c0,0-0.001,0-0.002,0c-0.001,0-0.001,0-0.002,0c0,0-0.001,0-0.002,0c0,0-0.001,0-0.002,0c-0.001,0-0.001,0-0.002,0
		c0,0-0.001,0-0.002,0c0,0-0.001,0-0.002,0c-0.001,0-0.001,0-0.002,0c0,0-0.001,0-0.002,0c-0.001,0-0.002,0-0.002,0
		c-0.001,0-0.001,0-0.002,0c0,0-0.001,0-0.002,0c-0.001,0-0.002,0-0.002,0c-0.001,0-0.001,0-0.002,0c0,0-0.001,0-0.002,0
		c-0.001,0-0.001,0-0.002,0s-0.001,0-0.002,0c0,0-0.001,0-0.002,0c-0.001,0-0.001,0-0.002,0c0,0-0.001,0-0.002,0
		c0,0-0.001,0-0.002,0c-0.001,0-0.001,0-0.002,0c0,0-0.001,0-0.002,0c0,0-0.001,0-0.002,0c-0.001,0-0.001,0-0.002,0
		c0,0-0.001,0-0.002,0c-0.001,0-0.002,0-0.002,0c-0.001,0-0.001,0-0.002,0c0,0-0.001,0-0.002,0c-0.001,0-0.001,0-0.002,0
		s-0.001,0-0.002,0c0,0-0.001,0-0.002,0c-0.001,0-0.001,0-0.002,0c0,0-0.001,0-0.002,0c0,0-0.001,0-0.002,0
		c-0.001,0-0.001,0-0.002,0c0,0-0.001,0-0.002,0c-0.001,0-0.002,0-0.002,0c-0.001,0-0.001,0-0.002,0c0,0-0.001,0-0.002,0
		c-0.001,0-0.001,0-0.002,0s-0.001,0-0.002,0c0,0-0.001,0-0.002,0c-0.001,0-0.001,0-0.002,0c0,0-0.001,0-0.002,0
		c0,0-0.001,0-0.002,0c-0.001,0-0.001,0-0.002,0c0,0-0.001,0-0.002,0c-0.001,0-0.002,0-0.002,0c-0.001,0-0.001,0-0.002,0
		c0,0-0.001,0-0.002,0c-0.001,0-0.001,0-0.002,0s-0.001,0-0.002,0c0,0-0.001,0-0.002,0c-0.001,0-0.001,0-0.002,0
		c0,0-0.001,0-0.002,0c0,0-0.001,0-0.002,0c-0.001,0-0.001,0-0.002,0c0,0-0.001,0-0.002,0c-0.001,0-0.002,0-0.002,0
		c-0.001,0-0.001,0-0.002,0c0,0-0.001,0-0.002,0c-0.001,0-0.001,0-0.002,0c0,0-0.001,0-0.002,0c0,0-0.001,0-0.002,0
		c-0.001,0-0.001,0-0.002,0c0,0-0.001,0-0.002,0c-0.001,0-0.002,0-0.002,0c-0.001,0-0.001,0-0.002,0c0,0-0.001,0-0.002,0
		c-0.001,0-0.001,0-0.002,0c0,0-0.001,0-0.002,0c0,0-0.001,0-0.002,0c-0.001,0-0.001,0-0.002,0c0,0-0.001,0-0.002,0
		c-0.001,0-0.002,0-0.002,0c-0.001,0-0.001,0-0.002,0c0,0-0.001,0-0.002,0c-0.001,0-0.001,0-0.002,0c0,0-0.001,0-0.002,0
		c0,0-0.001,0-0.002,0c-0.001,0-0.001,0-0.002,0c0,0-0.001,0-0.002,0c-0.001,0-0.002,0-0.002,0c-0.001,0-0.001,0-0.002,0
		c0,0-0.001,0-0.002,0c-0.001,0-0.001,0-0.002,0c0,0-0.001,0-0.002,0c0,0-0.001,0-0.002,0c-0.001,0-0.001,0-0.002,0
		c0,0-0.001,0-0.002,0c-0.001,0-0.001,0-0.002,0s-0.001,0-0.002,0c0,0-0.001,0-0.002,0c-0.001,0-0.001,0-0.002,0
		c0,0-0.001,0-0.002,0c-0.001,0-0.002,0-0.002,0c-0.001,0-0.001,0-0.002,0c0,0-0.001,0-0.002,0c-0.001,0-0.001,0-0.002,0
		c0,0-0.001,0-0.002,0c0,0-0.001,0-0.002,0c-0.001,0-0.001,0-0.002,0c0,0-0.001,0-0.002,0c-0.001,0-0.001,0-0.002,0
		s-0.001,0-0.002,0c0,0-0.001,0-0.002,0c-0.001,0-0.001,0-0.002,0c0,0-0.001,0-0.002,0c-0.001,0-0.002,0-0.002,0
		c-0.001,0-0.001,0-0.002,0c0,0-0.001,0-0.002,0c-0.001,0-0.001,0-0.002,0c0,0-0.001,0-0.002,0c0,0-0.001,0-0.002,0
		c-0.001,0-0.001,0-0.002,0c0,0-0.001,0-0.002,0c-0.001,0-0.001,0-0.002,0c0,0-0.001,0-0.002,0c0,0-0.001,0-0.002,0
		c-0.001,0-0.001,0-0.002,0c0,0-0.001,0-0.002,0c-0.001,0-0.001,0-0.002,0s-0.001,0-0.002,0c0,0-0.001,0-0.002,0
		c-0.001,0-0.001,0-0.002,0c0,0-0.001,0-0.002,0c-0.001,0-0.001,0-0.002,0s-0.001,0-0.002,0c0,0-0.001,0-0.002,0
		c-0.001,0-0.001,0-0.002,0c0,0-0.001,0-0.002,0c-0.001,0-0.002,0-0.002,0c-0.001,0-0.001,0-0.002,0c0,0-0.001,0-0.002,0
		c-0.001,0-0.001,0-0.002,0c0,0-0.001,0-0.002,0c-0.001,0-0.002,0-0.002,0c-0.001,0-0.001,0-0.002,0c0,0-0.001,0-0.002,0
		c-0.001,0-0.001,0-0.002,0c0,0-0.001,0-0.002,0c-0.001,0-0.002,0-0.002,0c-0.001,0-0.001,0-0.002,0c0,0-0.001,0-0.002,0
		c-0.001,0-0.001,0-0.002,0c0,0-0.001,0-0.002,0c-0.001,0-0.002,0-0.002,0c-0.001,0-0.001,0-0.002,0c0,0-0.001,0-0.002,0
		c-0.001,0-0.001,0-0.002,0c0,0-0.001,0-0.002,0c-0.001,0-0.001,0-0.002,0s-0.001,0-0.002,0c0,0-0.001,0-0.002,0
		c-0.001,0-0.001,0-0.002,0c0,0-0.001,0-0.002,0c-0.001,0-0.001,0-0.002,0s-0.001,0-0.002,0c0,0-0.001,0-0.002,0
		c-0.001,0-0.001,0-0.002,0c0,0-0.001,0-0.002,0c-0.001,0-0.001,0-0.002,0c0,0-0.001,0-0.002,0c0,0-0.001,0-0.002,0
		c-0.001,0-0.001,0-0.002,0c0,0-0.001,0-0.002,0c-0.001,0-0.001,0-0.002,0c0,0-0.001,0-0.002,0c0,0-0.001,0-0.002,0
		c-0.001,0-0.001,0-0.002,0c0,0-0.001,0-0.002,0c-0.001,0-0.001,0-0.002,0c0,0-0.001,0-0.002,0c-0.001,0-0.002,0-0.002,0
		c-0.001,0-0.001,0-0.002,0c0,0-0.001,0-0.002,0c-0.001,0-0.001,0-0.002,0c0,0-0.001,0-0.002,0c-0.001,0-0.001,0-0.002,0
		s-0.001,0-0.002,0c0,0-0.001,0-0.002,0c-0.001,0-0.001,0-0.002,0c0,0-0.001,0-0.002,0c-0.001,0-0.001,0-0.002,0
		c0,0-0.001,0-0.002,0c-0.001,0-0.002,0-0.002,0c-0.001,0-0.001,0-0.002,0c0,0-0.001,0-0.002,0c-0.001,0-0.001,0-0.002,0
		c0,0-0.001,0-0.002,0c-0.001,0-0.001,0-0.002,0s-0.001,0-0.002,0c0,0-0.001,0-0.002,0c-0.001,0-0.001,0-0.002,0
		c0,0-0.001,0-0.002,0c-0.001,0-0.001,0-0.002,0c0,0-0.001,0-0.002,0c-0.001,0-0.002,0-0.002,0c-0.001,0-0.001,0-0.002,0
		c0,0-0.001,0-0.002,0c-0.001,0-0.001,0-0.002,0c0,0-0.001,0-0.002,0c-0.001,0-0.001,0-0.002,0c0,0-0.001,0-0.002,0
		c0,0-0.001,0-0.002,0c-0.001,0-0.001,0-0.002,0c0,0-0.001,0-0.002,0c-0.001,0-0.001,0-0.002,0c0,0-0.001,0-0.002,0
		c-0.001,0-0.001,0-0.002,0c0,0-0.001,0-0.002,0c0,0-0.001,0-0.002,0c-0.001,0-0.001,0-0.002,0c0,0-0.001,0-0.002,0
		c-0.001,0-0.001,0-0.002,0c0,0-0.001,0-0.002,0c-0.001,0-0.001,0-0.002,0c0,0-0.001,0-0.002,0c0,0-0.001,0-0.002,0
		c-0.001,0-0.001,0-0.002,0c0,0-0.001,0-0.002,0c-0.001,0-0.001,0-0.002,0c0,0-0.001,0-0.002,0c-0.001,0-0.001,0-0.002,0
		c0,0-0.001,0-0.002,0c0,0-0.001,0-0.002,0c-0.001,0-0.001,0-0.002,0c0,0-0.001,0-0.002,0c-0.001,0-0.001,0-0.002,0
		c0,0-0.001,0-0.002,0c-0.001,0-0.001,0-0.002,0c0,0-0.001,0-0.002,0c0,0-0.001,0-0.002,0c-0.001,0-0.001,0-0.002,0
		c0,0-0.001,0-0.002,0c-0.001,0-0.001,0-0.002,0c0,0-0.001,0-0.002,0c-0.001,0-0.001,0-0.002,0c0,0-0.001,0-0.002,0
		c-0.001,0-0.001,0-0.002,0s-0.001,0-0.002,0c0,0-0.001,0-0.002,0c-0.001,0-0.001,0-0.002,0c0,0-0.001,0-0.002,0
		c-0.001,0-0.001,0-0.002,0c0,0-0.001,0-0.002,0c-0.001,0-0.001,0-0.002,0c0,0-0.001,0-0.002,0c0,0-0.001,0-0.002,0
		c-0.001,0-0.001,0-0.002,0c0,0-0.001,0-0.002,0c-0.001,0-0.001,0-0.002,0c0,0-0.001,0-0.002,0c-0.001,0-0.001,0-0.002,0
		c0,0-0.001,0-0.002,0c-0.001,0-0.001,0-0.002,0s-0.001,0-0.002,0c0,0-0.001,0-0.002,0c-0.001,0-0.001,0-0.002,0
		c0,0-0.001,0-0.002,0c-0.001,0-0.001,0-0.002,0c0,0-0.001,0-0.002,0c-0.001,0-0.001,0-0.002,0c0,0-0.001,0-0.002,0
		c-0.001,0-0.001,0-0.002,0s-0.001,0-0.002,0c0,0-0.001,0-0.002,0c-0.001,0-0.001,0-0.002,0c0,0-0.001,0-0.002,0
		c-0.001,0-0.001,0-0.002,0c0,0-0.001,0-0.002,0c-0.001,0-0.001,0-0.002,0c0,0-0.001,0-0.002,0c-0.001,0-0.001,0-0.002,0
		c0,0-0.001,0-0.002,0c0,0-0.001,0-0.002,0c-0.001,0-0.001,0-0.002,0c0,0-0.001,0-0.002,0c-0.001,0-0.001,0-0.002,0
		c0,0-0.001,0-0.002,0c-0.001,0-0.001,0-0.002,0c0,0-0.001,0-0.002,0c-0.001,0-0.001,0-0.002,0c0,0-0.001,0-0.002,0
		c-0.001,0-0.001,0-0.002,0s-0.001,0-0.002,0c0,0-0.001,0-0.002,0c-0.001,0-0.001,0-0.002,0c0,0-0.001,0-0.002,0
		c-0.001,0-0.001,0-0.002,0c0,0-0.001,0-0.002,0c-0.001,0-0.001,0-0.002,0c0,0-0.001,0-0.002,0c-0.001,0-0.001,0-0.002,0
		c0,0-0.001,0-0.002,0c-0.001,0-0.001,0-0.002,0s-0.001,0-0.002,0c0,0-0.001,0-0.002,0c-0.001,0-0.001,0-0.002,0
		c0,0-0.001,0-0.002,0c-0.001,0-0.001,0-0.002,0c0,0-0.001,0-0.002,0c-0.001,0-0.001,0-0.002,0c0,0-0.001,0-0.002,0
		c-0.001,0-0.001,0-0.002,0c0,0-0.001,0-0.002,0c-0.001,0-0.001,0-0.002,0c0,0-0.001,0-0.002,0c-0.001,0-0.002,0-0.002,0
		c-0.001,0-0.001,0-0.002,0c0,0-0.001,0-0.002,0c-0.001,0-0.001,0-0.002,0c0,0-0.001,0-0.002,0c-0.001,0-0.001,0-0.002,0
		c0,0-0.001,0-0.002,0c-0.001,0-0.001,0-0.002,0c0,0-0.001,0-0.002,0c-0.001,0-0.001,0-0.002,0c0,0-0.001,0-0.002,0
		c-0.001,0-0.001,0-0.002,0c0,0-0.001,0-0.002,0c-0.001,0-0.001,0-0.002,0c0,0-0.001,0-0.002,0c0,0-0.001,0-0.002,0
		c-0.001,0-0.001,0-0.002,0c0,0-0.001,0-0.002,0c-0.001,0-0.001,0-0.002,0c0,0-0.001,0-0.002,0c-0.001,0-0.001,0-0.002,0
		c0,0-0.001,0-0.002,0c-0.001,0-0.001,0-0.002,0c0,0-0.001,0-0.002,0c-0.001,0-0.001,0-0.002,0c0,0-0.001,0-0.002,0
		c-0.001,0-0.001,0-0.002,0c0,0-0.001,0-0.002,0c-0.001,0-0.001,0-0.002,0c0,0-0.001,0-0.002,0c-0.001,0-0.001,0-0.002,0
		s-0.001,0-0.002,0c0,0-0.001,0-0.002,0c-0.001,0-0.001,0-0.002,0c0,0-0.001,0-0.002,0c-0.001,0-0.001,0-0.002,0
		c0,0-0.001,0-0.002,0c-0.001,0-0.001,0-0.002,0c0,0-0.001,0-0.002,0c-0.001,0-0.001,0-0.002,0c0,0-0.001,0-0.002,0
		c-0.001,0-0.001,0-0.002,0c0,0-0.001,0-0.002,0c-0.001,0-0.001,0-0.002,0c0,0-0.001,0-0.002,0c-0.001,0-0.001,0-0.002,0
		c0,0-0.001,0-0.002,0c-0.001,0-0.001,0-0.002,0c0,0-0.001,0-0.002,0c-0.001,0-0.001,0-0.002,0c0,0-0.001,0-0.002,0
		c-0.001,0-0.001,0-0.002,0c0,0-0.001,0-0.002,0c0,0-0.001,0-0.002,0c-0.001,0-0.001,0-0.002,0c0,0-0.001,0-0.002,0
		c-0.001,0-0.001,0-0.002,0c0,0-0.001,0-0.002,0c-0.001,0-0.001,0-0.002,0c0,0-0.001,0-0.002,0c-0.001,0-0.001,0-0.002,0
		c0,0-0.001,0-0.002,0c-0.001,0-0.001,0-0.002,0c0,0-0.001,0-0.002,0c-0.001,0-0.001,0-0.002,0c0,0-0.001,0-0.002,0
		c-0.001,0-0.001,0-0.002,0c0,0-0.001,0-0.002,0c-0.001,0-0.001,0-0.002,0c0,0-0.001,0-0.002,0c-0.001,0-0.001,0-0.002,0
		c0,0-0.001,0-0.002,0c-0.001,0-0.001,0-0.002,0c0,0-0.001,0-0.002,0c-0.001,0-0.001,0-0.002,0c0,0-0.001,0-0.002,0
		c-0.001,0-0.001,0-0.002,0c0,0-0.001,0-0.002,0c-0.001,0-0.001,0-0.002,0c0,0-0.001,0-0.002,0c-0.001,0-0.001,0-0.002,0
		c0,0-0.001,0-0.002,0c-0.001,0-0.001,0-0.002,0c0,0-0.001,0-0.002,0c-0.001,0-0.001,0-0.002,0c0,0-0.001,0-0.002,0
		c-0.001,0-0.001,0-0.002,0c0,0-0.001,0-0.002,0c-0.001,0-0.001,0-0.002,0c0,0-0.001,0-0.002,0c-0.001,0-0.001,0-0.002,0
		c0,0-0.001,0-0.002,0c-0.001,0-0.001,0-0.002,0c0,0-0.001,0-0.002,0c-0.001,0-0.001,0-0.002,0c0,0-0.001,0-0.002,0
		c-0.001,0-0.001,0-0.002,0c0,0-0.001,0-0.002,0c-0.001,0-0.001,0-0.002,0c0,0-0.001,0-0.002,0c-0.001,0-0.001,0-0.002,0
		s-0.001,0-0.002,0c-0.001,0-0.002,0-0.002,0s-0.001,0-0.002,0c0,0-0.001,0-0.002,0H4.119L4.097,4.554
		C3.85,4.543,3.633,4.522,3.41,4.504c0,0.004,0.001,0.007,0.002,0.01l0,0c0,0.002,0.001,0.005,0.001,0.008
		c0.001,0.008,0.002,0.015,0.004,0.022h0c0.1,0.526,0.181,1.161,0.244,1.902h0c0.065,0.742,0.112,1.62,0.144,2.632
		c0.032,0.998,0.047,2.164,0.047,3.5v15.258c0,1.335-0.016,2.511-0.047,3.523c-0.032,0.997-0.08,1.868-0.144,2.61
		c-0.063,0.726-0.144,1.353-0.244,1.877h0c-0.001,0.006-0.002,0.011-0.003,0.017c-0.001,0.004-0.001,0.01-0.002,0.015h0
		C3.404,35.921,3.396,35.958,3.389,36H6.56c-0.009-0.043-0.018-0.078-0.026-0.122l-0.003-0.016l-0.002-0.016
		c-0.083-0.517-0.156-1.145-0.22-1.877l-0.001-0.011l-0.001-0.011c-0.047-0.727-0.094-1.584-0.142-2.572v-0.009l0-0.008
		c-0.032-1.013-0.047-2.188-0.047-3.523v-5.273v-0.995V21.382z"/>
	
		<rect x="11.469" y="22.205" transform="matrix(-0.1016 -0.9948 0.9948 -0.1016 -8.9553 36.3222)" fill="none" width="0.908" height="0"/>
	<path fill="none" d="M22.347,36h3.104c-0.219-0.229-0.441-0.471-0.672-0.742l-0.007-0.008l-0.007-0.009
		c-0.362-0.445-0.751-0.965-1.168-1.557h0l-8.223-11.55l-0.708-0.994l1.113-0.498c0.829-0.372,1.573-0.826,2.235-1.361
		c0.658-0.547,1.216-1.167,1.675-1.863l0.007-0.012c0.47-0.691,0.833-1.463,1.087-2.322l0.003-0.01
		c0.265-0.863,0.401-1.811,0.401-2.848c0-1.313-0.242-2.444-0.701-3.416l-0.003-0.008l-0.003-0.008
		c-0.455-1.007-1.09-1.845-1.909-2.527c-0.828-0.689-1.82-1.225-2.99-1.596l-0.003-0.001c-0.384-0.123-0.787-0.219-1.199-0.302
		c0.921,0.422,1.695,1.027,2.305,1.814h0c0.001,0.002,0.003,0.004,0.004,0.006c0.003,0.005,0.008,0.009,0.012,0.014l-0.001,0.001
		c0.623,0.775,1.073,1.7,1.367,2.754c0.294,1.056,0.435,2.21,0.435,3.456c0,1.782-0.271,3.36-0.854,4.705h0
		c0,0.001-0.001,0.002-0.001,0.002c0,0.002-0.001,0.003-0.001,0.004h0c-0.561,1.311-1.372,2.385-2.446,3.187l0,0.001
		c-0.001,0.001-0.003,0.002-0.005,0.003c-0.001,0.001-0.001,0.001-0.002,0.002l0,0c-0.8,0.604-1.713,1.036-2.727,1.309l0.319,0.452
		l8.296,11.694h0c0.364,0.513,0.681,1.038,0.952,1.575h0c0.002,0.004,0.003,0.007,0.005,0.01c0.004,0.008,0.009,0.016,0.013,0.023
		l-0.001,0.001C22.163,35.59,22.26,35.796,22.347,36z"/>
	<path fill="#292A40" d="M26.547,35.688c-0.313-0.297-0.648-0.656-1.008-1.078c-0.344-0.422-0.719-0.922-1.125-1.5l-8.227-11.555
		c0.906-0.406,1.727-0.906,2.461-1.5c0.734-0.609,1.359-1.305,1.875-2.086c0.531-0.781,0.938-1.648,1.219-2.602
		c0.297-0.969,0.445-2.016,0.445-3.141c0-1.438-0.266-2.719-0.797-3.844c-0.516-1.141-1.242-2.102-2.18-2.883
		s-2.047-1.375-3.328-1.781c-1.266-0.406-2.648-0.609-4.148-0.609c-1.609,0-2.938,0.078-3.984,0.234
		C6.719,3.484,5.898,3.555,5.289,3.555c-0.391,0-0.773,0-1.148,0c-0.359-0.016-0.688-0.039-0.984-0.07
		C2.813,3.453,2.484,3.422,2.172,3.391v0.094c0.094,0.328,0.18,0.734,0.258,1.219c0.094,0.484,0.172,1.094,0.234,1.828
		C2.727,7.25,2.773,8.109,2.805,9.109c0.031,0.984,0.047,2.141,0.047,3.469v15.258c0,1.328-0.016,2.492-0.047,3.492
		c-0.031,0.984-0.078,1.836-0.141,2.555s-0.141,1.32-0.234,1.805c-0.078,0.484-0.164,0.891-0.258,1.219V37h1h3.625h1v-0.094
		c-0.094-0.328-0.188-0.734-0.281-1.219c-0.078-0.484-0.148-1.086-0.211-1.805c-0.047-0.719-0.094-1.57-0.141-2.555
		c-0.031-1-0.047-2.164-0.047-3.492v-5.273c0.844,0.141,1.672,0.211,2.484,0.211s1.602-0.039,2.367-0.117l-0.092-0.903l0,0
		l0.092,0.903l8.297,11.695c0.344,0.484,0.641,0.977,0.891,1.477c0.266,0.484,0.422,0.875,0.469,1.172h5.773h1v-0.094
		c-0.313-0.125-0.617-0.281-0.914-0.469C27.188,36.234,26.875,35.984,26.547,35.688z M17.5,12.414c0,1.688-0.258,3.125-0.773,4.313
		c-0.5,1.172-1.211,2.102-2.133,2.789c-0.906,0.688-2,1.133-3.281,1.336c-1.266,0.203-2.664,0.164-4.195-0.117V5.219
		c0.266-0.094,0.602-0.18,1.008-0.258c0.344-0.063,0.766-0.117,1.266-0.164c0.5-0.063,1.086-0.094,1.758-0.094
		c1.063,0,1.992,0.188,2.789,0.563c0.797,0.359,1.453,0.875,1.969,1.547c0.531,0.656,0.93,1.461,1.195,2.414
		S17.5,11.242,17.5,12.414z M6.117,27.836c0,1.335,0.016,2.511,0.047,3.523l0,0.008v0.009c0.047,0.988,0.094,1.846,0.142,2.572
		l0.001,0.011l0.001,0.011c0.063,0.732,0.136,1.36,0.22,1.877l0.002,0.016l0.003,0.016C6.542,35.922,6.551,35.957,6.56,36H3.389
		c0.007-0.042,0.016-0.079,0.022-0.122h0c0.001-0.005,0.001-0.011,0.002-0.015c0.001-0.006,0.002-0.011,0.003-0.017h0
		c0.1-0.524,0.181-1.151,0.244-1.877c0.064-0.742,0.112-1.613,0.144-2.61c0.032-1.013,0.047-2.188,0.047-3.523V12.578
		c0-1.336-0.016-2.502-0.047-3.5C3.772,8.066,3.725,7.188,3.66,6.446h0C3.597,5.705,3.517,5.07,3.417,4.544h0
		C3.416,4.536,3.414,4.529,3.413,4.521c0-0.003-0.001-0.006-0.001-0.008l0,0c0-0.003-0.001-0.006-0.002-0.01
		c0.224,0.019,0.44,0.039,0.688,0.05l0.021,0.001h0.022c0,0,0.001,0,0.002,0c0.001,0,0.002,0,0.002,0s0.001,0,0.002,0
		c0,0,0.001,0,0.002,0s0.001,0,0.002,0c0,0,0.001,0,0.002,0c0.001,0,0.001,0,0.002,0c0,0,0.001,0,0.002,0c0.001,0,0.001,0,0.002,0
		c0,0,0.001,0,0.002,0c0.001,0,0.001,0,0.002,0c0,0,0.001,0,0.002,0c0.001,0,0.001,0,0.002,0c0,0,0.001,0,0.002,0
		c0.001,0,0.001,0,0.002,0c0,0,0.001,0,0.002,0c0.001,0,0.001,0,0.002,0c0,0,0.001,0,0.002,0c0.001,0,0.001,0,0.002,0
		c0,0,0.001,0,0.002,0c0.001,0,0.001,0,0.002,0c0,0,0.001,0,0.002,0c0.001,0,0.001,0,0.002,0c0,0,0.001,0,0.002,0
		c0.001,0,0.001,0,0.002,0c0,0,0.001,0,0.002,0c0.001,0,0.001,0,0.002,0c0,0,0.001,0,0.002,0c0.001,0,0.001,0,0.002,0
		c0,0,0.001,0,0.002,0c0.001,0,0.001,0,0.002,0c0,0,0.001,0,0.002,0c0.001,0,0.001,0,0.002,0c0,0,0.001,0,0.002,0
		c0.001,0,0.001,0,0.002,0c0,0,0.001,0,0.002,0c0.001,0,0.001,0,0.002,0c0,0,0.001,0,0.002,0c0.001,0,0.001,0,0.002,0
		c0,0,0.001,0,0.002,0c0.001,0,0.001,0,0.002,0c0,0,0.001,0,0.002,0c0.001,0,0.001,0,0.002,0c0,0,0.001,0,0.002,0
		c0.001,0,0.001,0,0.002,0c0,0,0.001,0,0.002,0c0.001,0,0.001,0,0.002,0c0,0,0.001,0,0.002,0c0.001,0,0.001,0,0.002,0
		c0,0,0.001,0,0.002,0c0.001,0,0.001,0,0.002,0c0,0,0.001,0,0.002,0c0.001,0,0.002,0,0.002,0c0.001,0,0.001,0,0.002,0
		c0,0,0.001,0,0.002,0c0.001,0,0.001,0,0.002,0c0,0,0.001,0,0.002,0c0.001,0,0.001,0,0.002,0c0,0,0.001,0,0.002,0
		c0.001,0,0.001,0,0.002,0c0,0,0.001,0,0.002,0c0.001,0,0.001,0,0.002,0c0,0,0.001,0,0.002,0c0.001,0,0.001,0,0.002,0
		c0,0,0.001,0,0.002,0c0.001,0,0.001,0,0.002,0c0,0,0.001,0,0.002,0c0.001,0,0.001,0,0.002,0c0,0,0.001,0,0.002,0
		c0.001,0,0.001,0,0.002,0c0,0,0.001,0,0.002,0c0.001,0,0.001,0,0.002,0c0,0,0.001,0,0.002,0c0.001,0,0.001,0,0.002,0
		s0.001,0,0.002,0c0,0,0.001,0,0.002,0c0.001,0,0.001,0,0.002,0c0,0,0.001,0,0.002,0c0.001,0,0.001,0,0.002,0c0,0,0.001,0,0.002,0
		c0.001,0,0.001,0,0.002,0c0,0,0.001,0,0.002,0c0.001,0,0.001,0,0.002,0c0,0,0.001,0,0.002,0c0.001,0,0.001,0,0.002,0
		c0,0,0.001,0,0.002,0c0.001,0,0.001,0,0.002,0c0,0,0.001,0,0.002,0c0.001,0,0.001,0,0.002,0c0,0,0.001,0,0.002,0
		c0.001,0,0.002,0,0.002,0c0.001,0,0.001,0,0.002,0c0,0,0.001,0,0.002,0c0.001,0,0.001,0,0.002,0c0,0,0.001,0,0.002,0
		c0.001,0,0.001,0,0.002,0c0,0,0.001,0,0.002,0c0.001,0,0.001,0,0.002,0c0,0,0.001,0,0.002,0c0.001,0,0.001,0,0.002,0
		c0,0,0.001,0,0.002,0c0.001,0,0.001,0,0.002,0c0,0,0.001,0,0.002,0c0.001,0,0.001,0,0.002,0c0,0,0.001,0,0.002,0
		c0,0,0.001,0,0.002,0c0.001,0,0.001,0,0.002,0c0,0,0.001,0,0.002,0c0.001,0,0.001,0,0.002,0c0,0,0.001,0,0.002,0
		c0.001,0,0.001,0,0.002,0c0,0,0.001,0,0.002,0c0.001,0,0.001,0,0.002,0c0,0,0.001,0,0.002,0c0.001,0,0.001,0,0.002,0
		c0,0,0.001,0,0.002,0c0.001,0,0.001,0,0.002,0s0.001,0,0.002,0c0,0,0.001,0,0.002,0c0.001,0,0.001,0,0.002,0c0,0,0.001,0,0.002,0
		c0.001,0,0.001,0,0.002,0c0,0,0.001,0,0.002,0c0.001,0,0.001,0,0.002,0c0,0,0.001,0,0.002,0c0.001,0,0.001,0,0.002,0
		c0,0,0.001,0,0.002,0c0.001,0,0.001,0,0.002,0s0.001,0,0.002,0c0,0,0.001,0,0.002,0c0.001,0,0.001,0,0.002,0c0,0,0.001,0,0.002,0
		c0.001,0,0.001,0,0.002,0c0,0,0.001,0,0.002,0c0.001,0,0.001,0,0.002,0c0,0,0.001,0,0.002,0c0.001,0,0.001,0,0.002,0
		c0,0,0.001,0,0.002,0c0.001,0,0.002,0,0.002,0c0.001,0,0.001,0,0.002,0c0,0,0.001,0,0.002,0c0.001,0,0.001,0,0.002,0
		c0,0,0.001,0,0.002,0c0.001,0,0.001,0,0.002,0c0,0,0.001,0,0.002,0c0.001,0,0.001,0,0.002,0c0,0,0.001,0,0.002,0
		c0.001,0,0.001,0,0.002,0s0.001,0,0.002,0c0,0,0.001,0,0.002,0c0.001,0,0.001,0,0.002,0c0,0,0.001,0,0.002,0
		c0.001,0,0.001,0,0.002,0c0,0,0.001,0,0.002,0c0.001,0,0.001,0,0.002,0c0,0,0.001,0,0.002,0c0.001,0,0.001,0,0.002,0
		s0.001,0,0.002,0c0,0,0.001,0,0.002,0c0.001,0,0.001,0,0.002,0c0,0,0.001,0,0.002,0c0.001,0,0.001,0,0.002,0c0,0,0.001,0,0.002,0
		c0.001,0,0.001,0,0.002,0c0,0,0.001,0,0.002,0c0.001,0,0.002,0,0.002,0c0.001,0,0.001,0,0.002,0c0,0,0.001,0,0.002,0
		c0.001,0,0.001,0,0.002,0c0,0,0.001,0,0.002,0c0.001,0,0.001,0,0.002,0c0,0,0.001,0,0.002,0c0.001,0,0.001,0,0.002,0
		s0.001,0,0.002,0c0,0,0.001,0,0.002,0c0.001,0,0.001,0,0.002,0c0,0,0.001,0,0.002,0c0.001,0,0.001,0,0.002,0c0,0,0.001,0,0.002,0
		c0.001,0,0.001,0,0.002,0c0,0,0.001,0,0.002,0c0.001,0,0.002,0,0.002,0c0.001,0,0.001,0,0.002,0c0,0,0.001,0,0.002,0
		c0.001,0,0.001,0,0.002,0c0,0,0.001,0,0.002,0c0.001,0,0.001,0,0.002,0c0,0,0.001,0,0.002,0c0.001,0,0.002,0,0.002,0
		c0.001,0,0.001,0,0.002,0c0,0,0.001,0,0.002,0c0.001,0,0.001,0,0.002,0c0,0,0.001,0,0.002,0c0.001,0,0.001,0,0.002,0
		c0,0,0.001,0,0.002,0c0.001,0,0.002,0,0.002,0c0.001,0,0.001,0,0.002,0c0,0,0.001,0,0.002,0c0.001,0,0.001,0,0.002,0
		c0,0,0.001,0,0.002,0c0.001,0,0.001,0,0.002,0c0,0,0.001,0,0.002,0c0.001,0,0.002,0,0.002,0c0.001,0,0.001,0,0.002,0
		c0,0,0.001,0,0.002,0c0.001,0,0.001,0,0.002,0c0,0,0.001,0,0.002,0c0.001,0,0.001,0,0.002,0c0,0,0.001,0,0.002,0
		c0.001,0,0.002,0,0.002,0c0.001,0,0.001,0,0.002,0c0,0,0.001,0,0.002,0c0.001,0,0.001,0,0.002,0c0,0,0.001,0,0.002,0
		c0.001,0,0.001,0,0.002,0c0,0,0.001,0,0.002,0c0,0,0.001,0,0.002,0c0.001,0,0.001,0,0.002,0c0,0,0.001,0,0.002,0
		c0.001,0,0.001,0,0.002,0c0,0,0.001,0,0.002,0c0.001,0,0.001,0,0.002,0s0.001,0,0.002,0c0,0,0.001,0,0.002,0
		c0.001,0,0.001,0,0.002,0c0,0,0.001,0,0.002,0c0.001,0,0.001,0,0.002,0c0,0,0.001,0,0.002,0c0,0,0.001,0,0.002,0
		c0.001,0,0.001,0,0.002,0c0,0,0.001,0,0.002,0c0.001,0,0.001,0,0.002,0c0,0,0.001,0,0.002,0c0.001,0,0.001,0,0.002,0
		s0.001,0,0.002,0c0,0,0.001,0,0.002,0c0.001,0,0.001,0,0.002,0c0,0,0.001,0,0.002,0c0.001,0,0.001,0,0.002,0c0,0,0.001,0,0.002,0
		c0,0,0.001,0,0.002,0c0.001,0,0.001,0,0.002,0c0,0,0.001,0,0.002,0c0.001,0,0.001,0,0.002,0c0,0,0.001,0,0.002,0
		c0.001,0,0.002,0,0.002,0c0.001,0,0.001,0,0.002,0c0,0,0.001,0,0.002,0c0.001,0,0.001,0,0.002,0c0,0,0.001,0,0.002,0
		c0.001,0,0.002,0,0.002,0c0.001,0,0.001,0,0.002,0c0,0,0.001,0,0.002,0c0.001,0,0.001,0,0.002,0c0,0,0.001,0,0.002,0
		c0.001,0,0.001,0,0.002,0s0.001,0,0.002,0c0,0,0.001,0,0.002,0c0.001,0,0.001,0,0.002,0c0,0,0.001,0,0.002,0
		c0.001,0,0.001,0,0.002,0s0.001,0,0.002,0c0,0,0.001,0,0.002,0c0.001,0,0.001,0,0.002,0c0,0,0.001,0,0.002,0
		c0.001,0,0.001,0,0.002,0c0,0,0.001,0,0.002,0c0,0,0.001,0,0.002,0c0.001,0,0.001,0,0.002,0c0,0,0.001,0,0.002,0
		c0.001,0,0.001,0,0.002,0c0,0,0.001,0,0.002,0c0,0,0.001,0,0.002,0c0.001,0,0.001,0,0.002,0c0,0,0.001,0,0.002,0
		c0.001,0,0.001,0,0.002,0c0,0,0.001,0,0.002,0c0,0,0.001,0,0.002,0c0.001,0,0.001,0,0.002,0c0,0,0.001,0,0.002,0
		c0.001,0,0.001,0,0.002,0c0,0,0.001,0,0.002,0c0,0,0.001,0,0.002,0c0.001,0,0.001,0,0.002,0c0,0,0.001,0,0.002,0
		c0.001,0,0.001,0,0.002,0s0.001,0,0.002,0c0,0,0.001,0,0.002,0c0.001,0,0.001,0,0.002,0c0,0,0.001,0,0.002,0
		c0.001,0,0.001,0,0.002,0s0.001,0,0.002,0c0,0,0.001,0,0.002,0c0.001,0,0.001,0,0.002,0c0,0,0.001,0,0.002,0
		c0.001,0,0.002,0,0.002,0c0.001,0,0.001,0,0.002,0c0,0,0.001,0,0.002,0c0.001,0,0.001,0,0.002,0c0,0,0.001,0,0.002,0
		c0.001,0,0.002,0,0.002,0c0.001,0,0.001,0,0.002,0c0,0,0.001,0,0.002,0c0.001,0,0.001,0,0.002,0c0,0,0.001,0,0.002,0
		c0,0,0.001,0,0.002,0c0.001,0,0.001,0,0.002,0c0,0,0.001,0,0.002,0c0.001,0,0.001,0,0.002,0s0.001,0,0.002,0c0,0,0.001,0,0.002,0
		c0.001,0,0.001,0,0.002,0c0,0,0.001,0,0.002,0c0.001,0,0.002,0,0.002,0c0.001,0,0.001,0,0.002,0c0,0,0.001,0,0.002,0
		c0.001,0,0.001,0,0.002,0c0,0,0.001,0,0.002,0c0,0,0.001,0,0.002,0c0.001,0,0.001,0,0.002,0c0,0,0.001,0,0.002,0
		c0.001,0,0.001,0,0.002,0s0.001,0,0.002,0c0,0,0.001,0,0.002,0c0.001,0,0.001,0,0.002,0c0,0,0.001,0,0.002,0
		c0.001,0,0.002,0,0.002,0c0.001,0,0.001,0,0.002,0c0,0,0.001,0,0.002,0c0.001,0,0.001,0,0.002,0c0,0,0.001,0,0.002,0
		c0,0,0.001,0,0.002,0c0.001,0,0.001,0,0.002,0c0,0,0.001,0,0.002,0c0.001,0,0.002,0,0.002,0c0.001,0,0.001,0,0.002,0
		c0,0,0.001,0,0.002,0c0.001,0,0.001,0,0.002,0c0,0,0.001,0,0.002,0c0,0,0.001,0,0.002,0c0.001,0,0.001,0,0.002,0
		c0,0,0.001,0,0.002,0c0.001,0,0.002,0,0.002,0c0.001,0,0.001,0,0.002,0c0,0,0.001,0,0.002,0c0.001,0,0.001,0,0.002,0
		c0,0,0.001,0,0.002,0c0,0,0.001,0,0.002,0c0.001,0,0.001,0,0.002,0c0,0,0.001,0,0.002,0c0.001,0,0.002,0,0.002,0
		c0.001,0,0.001,0,0.002,0c0,0,0.001,0,0.002,0c0.001,0,0.001,0,0.002,0c0,0,0.001,0,0.002,0c0,0,0.001,0,0.002,0
		c0.001,0,0.001,0,0.002,0c0,0,0.001,0,0.002,0c0.001,0,0.002,0,0.002,0c0.001,0,0.001,0,0.002,0c0,0,0.001,0,0.002,0
		c0.001,0,0.001,0,0.002,0s0.001,0,0.002,0c0,0,0.001,0,0.002,0c0.001,0,0.001,0,0.002,0c0,0,0.001,0,0.002,0c0,0,0.001,0,0.002,0
		c0.001,0,0.001,0,0.002,0c0,0,0.001,0,0.002,0c0.001,0,0.002,0,0.002,0c0.001,0,0.001,0,0.002,0c0,0,0.001,0,0.002,0
		c0.001,0,0.001,0,0.002,0s0.001,0,0.002,0c0,0,0.001,0,0.002,0c0.001,0,0.001,0,0.002,0c0,0,0.001,0,0.002,0c0,0,0.001,0,0.002,0
		c0.001,0,0.001,0,0.002,0c0,0,0.001,0,0.002,0c0.001,0,0.002,0,0.002,0c0.001,0,0.001,0,0.002,0c0,0,0.001,0,0.002,0
		c0.001,0,0.001,0,0.002,0s0.001,0,0.002,0c0,0,0.001,0,0.002,0c0.001,0,0.001,0,0.002,0c0,0,0.001,0,0.002,0c0,0,0.001,0,0.002,0
		c0.001,0,0.001,0,0.002,0c0,0,0.001,0,0.002,0c0.001,0,0.002,0,0.002,0c0.001,0,0.001,0,0.002,0c0,0,0.001,0,0.002,0
		c0.001,0,0.002,0,0.002,0c0.001,0,0.001,0,0.002,0c0,0,0.001,0,0.002,0c0.001,0,0.001,0,0.002,0s0.001,0,0.002,0
		c0,0,0.001,0,0.002,0c0.001,0,0.001,0,0.002,0c0,0,0.001,0,0.002,0c0,0,0.001,0,0.002,0c0.001,0,0.001,0,0.002,0
		c0,0,0.001,0,0.002,0c0,0,0.001,0,0.002,0c0.001,0,0.001,0,0.002,0c0,0,0.001,0,0.002,0c0.001,0,0.002,0,0.002,0
		c0.001,0,0.001,0,0.002,0c0,0,0.001,0,0.002,0c0.001,0,0.002,0,0.002,0c0.001,0,0.001,0,0.002,0c0,0,0.001,0,0.002,0
		c0.001,0,0.001,0,0.002,0s0.001,0,0.002,0c0,0,0.001,0,0.002,0c0.001,0,0.001,0,0.002,0s0.001,0,0.002,0c0,0,0.001,0,0.002,0
		c0.001,0,0.001,0,0.002,0s0.001,0,0.002,0c0,0,0.001,0,0.002,0c0.001,0,0.001,0,0.002,0c0,0,0.001,0,0.002,0c0,0,0.001,0,0.002,0
		c0.001,0,0.001,0,0.002,0c0,0,0.001,0,0.002,0c0,0,0.001,0,0.002,0c0.001,0,0.001,0,0.002,0c0,0,0.001,0,0.002,0
		c0,0,0.001,0,0.002,0c0.001,0,0.001,0,0.002,0c0,0,0.001,0,0.002,0c0.001,0,0.002,0,0.002,0c0.001,0,0.001,0,0.002,0
		c0,0,0.001,0,0.002,0c0.001,0,0.002,0,0.002,0c0.001,0,0.001,0,0.002,0c0,0,0.001,0,0.002,0c0.001,0,0.002,0,0.002,0
		c0.001,0,0.001,0,0.002,0c0,0,0.001,0,0.002,0c0.001,0,0.002,0,0.002,0c0.001,0,0.001,0,0.002,0c0,0,0.001,0,0.002,0
		c0.001,0,0.002,0,0.002,0c0.001,0,0.001,0,0.002,0c0,0,0.001,0,0.002,0c0.001,0,0.002,0,0.002,0c0.001,0,0.001,0,0.002,0
		c0,0,0.001,0,0.002,0c0.001,0,0.002,0,0.002,0c0.001,0,0.001,0,0.002,0c0,0,0.001,0,0.002,0c0.001,0,0.002,0,0.002,0
		c0.001,0,0.001,0,0.002,0c0,0,0.001,0,0.002,0c0.001,0,0.002,0,0.002,0c0.001,0,0.001,0,0.002,0c0,0,0.001,0,0.002,0
		c0.001,0,0.002,0,0.002,0c0.001,0,0.001,0,0.002,0c0,0,0.001,0,0.002,0c0.001,0,0.002,0,0.002,0c0.001,0,0.001,0,0.002,0
		c0,0,0.001,0,0.002,0c0.001,0,0.002,0,0.002,0c0.001,0,0.001,0,0.002,0c0,0,0.001,0,0.002,0c0.001,0,0.002,0,0.002,0
		c0.001,0,0.001,0,0.002,0c0,0,0.001,0,0.002,0c0.001,0,0.002,0,0.002,0c0.001,0,0.001,0,0.002,0c0,0,0.001,0,0.002,0
		c0.001,0,0.002,0,0.002,0c0.001,0,0.001,0,0.002,0c0,0,0.001,0,0.002,0c0,0,0.001,0,0.002,0c0.001,0,0.001,0,0.002,0
		c0,0,0.001,0,0.002,0c0,0,0.001,0,0.002,0c0.001,0,0.001,0,0.002,0c0,0,0.001,0,0.002,0c0,0,0.001,0,0.002,0
		c0.001,0,0.001,0,0.002,0c0,0,0.001,0,0.002,0c0,0,0.001,0,0.002,0c0.001,0,0.001,0,0.002,0s0.001,0,0.002,0c0,0,0.001,0,0.002,0
		c0.001,0,0.001,0,0.002,0s0.001,0,0.002,0c0,0,0.001,0,0.002,0c0.001,0,0.001,0,0.002,0s0.001,0,0.002,0c0,0,0.001,0,0.002,0
		c0.001,0,0.002,0,0.002,0c0.001,0,0.001,0,0.002,0c0,0,0.001,0,0.002,0c0.001,0,0.002,0,0.002,0c0.001,0,0.001,0,0.002,0
		c0,0,0.001,0,0.002,0c0,0,0.001,0,0.002,0c0.001,0,0.001,0,0.002,0c0,0,0.001,0,0.002,0c0,0,0.001,0,0.002,0
		c0.001,0,0.001,0,0.002,0s0.001,0,0.002,0c0,0,0.001,0,0.002,0c0.001,0,0.001,0,0.002,0c0.247,0,0.529-0.014,0.828-0.034v0.698
		v15.516v0.647v0.186v0.995V27.836z M22.038,35.357c-0.002-0.003-0.003-0.006-0.005-0.01h0c-0.271-0.537-0.587-1.063-0.952-1.575h0
		l-8.296-11.694l-0.319-0.452c1.013-0.272,1.927-0.704,2.727-1.309l0,0c0-0.001,0.001-0.001,0.002-0.002
		c0.001-0.001,0.003-0.002,0.005-0.003l0-0.001c1.074-0.802,1.885-1.876,2.446-3.187h0c0-0.001,0.001-0.002,0.001-0.004
		c0,0,0-0.001,0.001-0.002h0c0.583-1.345,0.854-2.923,0.854-4.705c0-1.246-0.141-2.4-0.435-3.456
		c-0.294-1.054-0.744-1.979-1.367-2.754L16.7,6.203c-0.004-0.005-0.008-0.009-0.012-0.014c-0.001-0.002-0.003-0.004-0.004-0.006h0
		c-0.61-0.787-1.384-1.393-2.305-1.814c0.412,0.083,0.815,0.179,1.199,0.302l0.003,0.001c1.17,0.371,2.162,0.906,2.99,1.596
		c0.818,0.683,1.454,1.521,1.909,2.527l0.003,0.008l0.003,0.008c0.459,0.972,0.701,2.104,0.701,3.416
		c0,1.037-0.137,1.984-0.401,2.848l-0.003,0.01c-0.253,0.859-0.617,1.631-1.087,2.322l-0.007,0.012
		c-0.459,0.696-1.017,1.316-1.675,1.863c-0.663,0.535-1.406,0.989-2.235,1.361l-1.113,0.498l0.708,0.994l8.223,11.55h0
		c0.417,0.592,0.806,1.111,1.168,1.557l0.007,0.009l0.007,0.008c0.231,0.271,0.454,0.514,0.672,0.742h-3.104
		c-0.087-0.204-0.184-0.41-0.297-0.618l0.001-0.001C22.047,35.373,22.042,35.365,22.038,35.357z"/>
</g>
</svg>
