<?xml version="1.0" encoding="utf-8"?>
<!-- Generator: Adobe Illustrator 16.0.0, SVG Export Plug-In . SVG Version: 6.00 Build 0)  -->
<!DOCTYPE svg PUBLIC "-//W3C//DTD SVG 1.1//EN" "http://www.w3.org/Graphics/SVG/1.1/DTD/svg11.dtd">
<svg version="1.1" id="圖層_1" xmlns="http://www.w3.org/2000/svg" xmlns:xlink="http://www.w3.org/1999/xlink" x="0px" y="0px"
	 width="789px" height="254px" viewBox="0 0 789 254" enable-background="new 0 0 789 254" xml:space="preserve">
<g>
	<path stroke="#000000" stroke-miterlimit="10" d="M33.283,68.361c0-2.461-0.206-4.57-0.615-6.328
		c-0.411-1.758-1.129-3.193-2.153-4.307c-1.026-1.112-2.447-1.934-4.263-2.461c-1.817-0.527-4.131-0.791-6.943-0.791
		c-3.867,0-8.819,0.439-14.854,1.318L3.4,47.971c5.449-0.996,11.411-2.021,17.886-3.076c6.474-1.055,13.125-2.021,19.951-2.9
		c6.825-0.879,13.681-1.596,20.566-2.153c6.884-0.556,13.491-0.835,19.819-0.835c8.495,0,16.376,0.747,23.643,2.241
		c7.265,1.494,13.564,3.985,18.896,7.471c5.331,3.487,9.521,8.072,12.568,13.755c3.046,5.684,4.57,12.744,4.57,21.182
		c0,7.793-1.274,14.928-3.823,21.401c-2.549,6.475-6.152,12.261-10.811,17.358s-10.298,9.463-16.919,13.096
		c-6.622,3.634-14.005,6.504-22.148,8.613c6.093,10.43,11.63,19.6,16.611,27.51c4.979,7.91,9.55,14.84,13.711,20.786
		c4.16,5.948,7.968,11.045,11.426,15.293c3.457,4.249,6.708,7.925,9.756,11.03c2.402,2.52,4.658,4.645,6.768,6.372
		c2.109,1.729,4.145,3.12,6.108,4.175c1.962,1.055,3.94,1.817,5.933,2.285c1.991,0.47,4.072,0.703,6.24,0.703
		c2.343,0,4.57-0.233,6.68-0.703c2.109-0.468,4.423-1.171,6.943-2.109l2.461,7.207c-7.442,3.399-14.034,5.933-19.775,7.603
		c-5.743,1.67-10.547,2.505-14.414,2.505c-1.934,0-3.779-0.22-5.537-0.659s-3.487-1.099-5.186-1.978
		c-1.7-0.879-3.399-2.006-5.098-3.384c-1.7-1.376-3.516-3.002-5.449-4.878c-3.164-2.988-6.827-7.045-10.986-12.173
		c-4.161-5.126-8.863-11.542-14.106-19.248c-5.245-7.704-11.061-16.831-17.446-27.378c-6.387-10.547-13.418-22.733-21.094-36.563
		l0.176-1.143c10.371-0.409,19.13-1.846,26.279-4.307c7.148-2.461,12.934-5.801,17.358-10.02c4.423-4.219,7.631-9.242,9.624-15.073
		c1.991-5.83,2.988-12.349,2.988-19.556c0-13.828-3.634-24.17-10.898-31.025c-7.266-6.855-18.018-10.283-32.256-10.283
		c-3.047,0-5.948,0.118-8.701,0.352c-2.755,0.235-5.801,0.558-9.141,0.967c-0.118,4.513-0.279,10.547-0.483,18.105
		c-0.206,7.559-0.439,16.246-0.703,26.06c-0.264,9.815-0.571,20.566-0.923,32.256s-0.703,23.906-1.055,36.65
		s-0.733,25.84-1.143,39.287c-0.411,13.447-0.821,26.851-1.23,40.21l-20.83,2.637l-1.582-0.176
		c0.703-16.816,1.347-32.753,1.934-47.813c0.585-15.058,1.068-29.721,1.45-43.989c0.38-14.267,0.688-28.389,0.923-42.363
		C33.165,97.321,33.283,83.01,33.283,68.361z"/>
	<path stroke="#000000" stroke-miterlimit="10" d="M266.984,215.754c0.352,0.176,0.805,0.426,1.362,0.747
		c0.556,0.323,1.068,0.674,1.538,1.055c0.468,0.382,0.879,0.791,1.23,1.23s0.527,0.865,0.527,1.274c0,0.235-0.088,0.47-0.264,0.703
		c-3.282,4.57-6.812,8.541-10.591,11.909c-3.779,3.37-7.706,6.183-11.777,8.438c-4.073,2.255-8.218,3.925-12.437,5.01
		c-4.219,1.083-8.38,1.626-12.48,1.626c-7.031,0-13.478-1.437-19.336-4.307c-5.86-2.87-10.898-6.796-15.117-11.777
		c-4.219-4.979-7.515-10.824-9.888-17.534c-2.373-6.708-3.56-13.9-3.56-21.577c0-6.269,0.688-12.538,2.065-18.809
		c1.376-6.269,3.369-12.246,5.977-17.93c2.606-5.683,5.786-10.971,9.536-15.864c3.749-4.892,8.012-9.141,12.788-12.744
		c4.775-3.604,10.02-6.43,15.732-8.481c5.713-2.05,11.85-3.076,18.413-3.076c4.335,0,8.466,0.586,12.393,1.758
		c3.925,1.173,7.368,2.856,10.327,5.054c2.958,2.197,5.317,4.908,7.075,8.13c1.758,3.223,2.637,6.886,2.637,10.986
		c0,5.977-1.949,11.192-5.845,15.645c-3.897,4.454-9.272,8.233-16.128,11.338c-6.855,3.106-14.928,5.611-24.214,7.515
		c-9.288,1.905-19.322,3.326-30.103,4.263v1.494c0,7.501,0.952,14.356,2.856,20.566c1.903,6.211,4.526,11.529,7.866,15.952
		c3.34,4.425,7.265,7.866,11.777,10.327c4.511,2.461,9.374,3.691,14.59,3.691c5.273,0,10.679-1.303,16.216-3.911
		C255.69,225.848,261.3,221.614,266.984,215.754z M250.461,145.178c0-2.694-0.455-5.214-1.362-7.559
		c-0.909-2.343-2.168-4.379-3.779-6.108c-1.612-1.728-3.531-3.09-5.757-4.087c-2.228-0.996-4.629-1.494-7.207-1.494
		c-3.81,0-7.266,0.674-10.371,2.021c-3.106,1.349-5.889,3.179-8.35,5.493c-2.461,2.315-4.629,5.01-6.504,8.086
		c-1.876,3.076-3.472,6.343-4.79,9.8c-1.318,3.458-2.388,7.002-3.208,10.635c-0.821,3.634-1.406,7.178-1.758,10.635
		c8.319-0.585,15.776-1.596,22.368-3.032c6.592-1.435,12.158-3.281,16.699-5.537c4.54-2.255,8.012-4.951,10.415-8.086
		C249.259,152.811,250.461,149.221,250.461,145.178z"/>
	<path stroke="#000000" stroke-miterlimit="10" d="M361.818,152.736c1.64-3.222,2.461-6.504,2.461-9.844
		c0-2.285-0.396-4.438-1.187-6.46s-1.978-3.808-3.56-5.361c-1.582-1.552-3.56-2.782-5.933-3.691
		c-2.373-0.908-5.142-1.362-8.306-1.362c-4.57,0-8.672,0.806-12.305,2.417c-3.634,1.612-6.842,3.823-9.624,6.636
		c-2.783,2.813-5.156,6.064-7.119,9.756c-1.964,3.691-3.575,7.646-4.834,11.865c-1.261,4.219-2.184,8.541-2.769,12.964
		c-0.586,4.425-0.879,8.745-0.879,12.964c0,7.559,0.98,14.429,2.944,20.61c1.962,6.183,4.614,11.456,7.954,15.82
		c3.34,4.366,7.236,7.75,11.689,10.151c4.452,2.403,9.198,3.604,14.238,3.604c5.331,0,10.736-1.391,16.216-4.175
		c5.479-2.782,10.796-7.28,15.952-13.491c0.352,0.176,0.805,0.426,1.362,0.747c0.557,0.323,1.068,0.689,1.538,1.099
		c0.469,0.411,0.879,0.821,1.23,1.23c0.352,0.411,0.527,0.791,0.527,1.143c0,0.235-0.03,0.382-0.088,0.439l-0.176,0.352
		c-5.684,9.2-12.511,16.084-20.479,20.654c-7.969,4.57-16.699,6.855-26.191,6.855c-5.156,0-9.902-0.718-14.238-2.153
		c-4.337-1.437-8.262-3.428-11.777-5.977s-6.607-5.566-9.272-9.053c-2.667-3.485-4.893-7.265-6.68-11.338
		c-1.788-4.072-3.135-8.35-4.043-12.832c-0.909-4.482-1.362-9.009-1.362-13.579c0-6.152,0.673-12.318,2.021-18.501
		c1.347-6.181,3.325-12.129,5.933-17.842c2.606-5.713,5.771-11.044,9.492-15.996c3.72-4.951,7.939-9.257,12.656-12.92
		c4.716-3.661,9.917-6.533,15.601-8.613c5.683-2.079,11.747-3.12,18.193-3.12c4.804,0,9.286,0.586,13.447,1.758
		c4.16,1.173,7.748,2.828,10.767,4.966c3.018,2.14,5.391,4.717,7.119,7.734c1.728,3.019,2.593,6.372,2.593,10.063
		c0,2.403-0.366,4.526-1.099,6.372c-0.733,1.846-1.758,3.428-3.076,4.746s-2.871,2.315-4.658,2.988
		c-1.788,0.674-3.735,1.011-5.845,1.011c-1.289,0-2.623-0.132-3.999-0.396c-1.377-0.264-2.739-0.688-4.087-1.274L361.818,152.736z"
		/>
	<path stroke="#000000" stroke-miterlimit="10" d="M398.029,192.463c0-5.917,0.615-11.923,1.846-18.018
		c1.23-6.093,3.046-11.997,5.449-17.71c2.402-5.713,5.375-11.074,8.921-16.084c3.545-5.01,7.632-9.389,12.261-13.14
		c4.628-3.749,9.785-6.708,15.469-8.877c5.683-2.167,11.865-3.252,18.545-3.252c7.5,0,14.136,1.582,19.907,4.746
		c5.771,3.164,10.62,7.339,14.546,12.524c3.925,5.186,6.899,11.089,8.921,17.71c2.021,6.622,3.032,13.39,3.032,20.303
		c0,5.919-0.615,11.924-1.846,18.018c-1.23,6.095-3.063,11.997-5.493,17.71c-2.432,5.713-5.42,11.074-8.965,16.084
		c-3.546,5.01-7.633,9.391-12.261,13.14c-4.629,3.75-9.786,6.71-15.469,8.877c-5.684,2.167-11.865,3.252-18.545,3.252
		c-7.501,0-14.137-1.582-19.907-4.746c-5.771-3.164-10.605-7.339-14.502-12.524c-3.897-5.186-6.855-11.088-8.877-17.71
		C399.04,206.145,398.029,199.377,398.029,192.463z M419.035,184.113c0,3.985,0.308,8.028,0.923,12.129
		c0.615,4.102,1.567,8.057,2.856,11.865c1.288,3.81,2.886,7.369,4.79,10.679c1.903,3.311,4.16,6.196,6.768,8.657
		c2.606,2.461,5.537,4.395,8.789,5.801s6.841,2.109,10.767,2.109c4.276,0,8.042-0.923,11.294-2.769s6.064-4.292,8.438-7.339
		c2.373-3.046,4.336-6.533,5.889-10.459c1.552-3.925,2.798-7.983,3.735-12.173c0.937-4.188,1.596-8.334,1.978-12.437
		c0.381-4.101,0.571-7.88,0.571-11.338c0-4.043-0.308-8.1-0.923-12.173c-0.615-4.072-1.568-7.998-2.856-11.777
		c-1.289-3.779-2.887-7.324-4.79-10.635c-1.904-3.31-4.161-6.181-6.768-8.613c-2.607-2.431-5.537-4.351-8.789-5.757
		s-6.842-2.109-10.767-2.109c-4.277,0-8.042,0.909-11.294,2.725c-3.252,1.817-6.064,4.249-8.438,7.295
		c-2.373,3.047-4.337,6.534-5.889,10.459c-1.553,3.926-2.799,7.969-3.735,12.129c-0.938,4.161-1.597,8.306-1.978,12.437
		C419.224,176.95,419.035,180.716,419.035,184.113z"/>
	<path stroke="#000000" stroke-miterlimit="10" d="M525.91,192.463c0-5.917,0.615-11.923,1.846-18.018
		c1.23-6.093,3.046-11.997,5.449-17.71c2.402-5.713,5.375-11.074,8.921-16.084c3.545-5.01,7.632-9.389,12.261-13.14
		c4.628-3.749,9.785-6.708,15.469-8.877c5.683-2.167,11.865-3.252,18.545-3.252c7.5,0,14.136,1.582,19.907,4.746
		c5.771,3.164,10.62,7.339,14.546,12.524c3.925,5.186,6.899,11.089,8.921,17.71c2.021,6.622,3.032,13.39,3.032,20.303
		c0,5.919-0.615,11.924-1.846,18.018c-1.23,6.095-3.063,11.997-5.493,17.71c-2.432,5.713-5.42,11.074-8.965,16.084
		c-3.546,5.01-7.633,9.391-12.261,13.14c-4.629,3.75-9.786,6.71-15.469,8.877c-5.684,2.167-11.865,3.252-18.545,3.252
		c-7.501,0-14.137-1.582-19.907-4.746c-5.771-3.164-10.605-7.339-14.502-12.524c-3.897-5.186-6.855-11.088-8.877-17.71
		C526.92,206.145,525.91,199.377,525.91,192.463z M546.916,184.113c0,3.985,0.308,8.028,0.923,12.129
		c0.615,4.102,1.567,8.057,2.856,11.865c1.288,3.81,2.886,7.369,4.79,10.679c1.903,3.311,4.16,6.196,6.768,8.657
		c2.606,2.461,5.537,4.395,8.789,5.801s6.841,2.109,10.767,2.109c4.276,0,8.042-0.923,11.294-2.769s6.064-4.292,8.438-7.339
		c2.373-3.046,4.336-6.533,5.889-10.459c1.552-3.925,2.798-7.983,3.735-12.173c0.937-4.188,1.596-8.334,1.978-12.437
		c0.381-4.101,0.571-7.88,0.571-11.338c0-4.043-0.308-8.1-0.923-12.173c-0.615-4.072-1.568-7.998-2.856-11.777
		c-1.289-3.779-2.887-7.324-4.79-10.635c-1.904-3.31-4.161-6.181-6.768-8.613c-2.607-2.431-5.537-4.351-8.789-5.757
		s-6.842-2.109-10.767-2.109c-4.277,0-8.042,0.909-11.294,2.725c-3.252,1.817-6.064,4.249-8.438,7.295
		c-2.373,3.047-4.337,6.534-5.889,10.459c-1.553,3.926-2.799,7.969-3.735,12.129c-0.938,4.161-1.597,8.306-1.978,12.437
		C547.105,176.95,546.916,180.716,546.916,184.113z"/>
	<path stroke="#000000" stroke-miterlimit="10" d="M703.625,186.398c7.031-2.343,13.447-5.01,19.248-7.998s10.796-6.181,14.985-9.58
		c4.188-3.397,7.427-6.972,9.712-10.723c2.285-3.749,3.428-7.587,3.428-11.514c0-1.64-0.308-3.149-0.923-4.526
		c-0.615-1.376-1.437-2.549-2.461-3.516c-1.025-0.967-2.228-1.714-3.604-2.241c-1.377-0.527-2.856-0.791-4.438-0.791
		c-3.691,0-7.515,1.143-11.47,3.428s-7.881,5.596-11.777,9.932c-3.897,4.337-7.69,9.639-11.382,15.908
		c-3.691,6.271-7.119,13.39-10.283,21.357c-3.164,7.969-6.007,16.729-8.525,26.279c-2.52,9.551-4.541,19.747-6.064,30.586
		l-17.754,2.285l-1.406-0.088c0.352-6.913,0.747-14.546,1.187-22.896s0.908-17.211,1.406-26.587
		c0.497-9.374,1.024-19.145,1.582-29.312c0.557-10.165,1.112-20.522,1.67-31.069c0.557-10.547,1.128-21.182,1.714-31.904
		c0.585-10.723,1.156-21.313,1.714-31.772c0.557-10.459,1.099-20.698,1.626-30.718s1.024-19.6,1.494-28.74
		c0.058-1.406,0.469-2.622,1.23-3.647c0.761-1.024,1.743-1.846,2.944-2.461c1.2-0.615,2.563-1.068,4.087-1.362
		c1.523-0.292,3.105-0.439,4.746-0.439c3.516,0,7.207,0.938,11.074,2.813c-1.349,12.012-2.549,23.027-3.604,33.047
		s-2.008,19.322-2.856,27.905c-0.85,8.584-1.626,16.611-2.329,24.082s-1.333,14.62-1.89,21.445
		c-0.558,6.827-1.085,13.506-1.582,20.039c-0.498,6.534-0.981,13.17-1.45,19.907c-0.47,6.739-0.953,13.711-1.45,20.918
		c-0.498,7.207-1.041,14.941-1.626,23.203l0.527,0.088c2.109-6.972,4.6-13.856,7.471-20.654c2.87-6.796,6.034-13.256,9.492-19.38
		c3.457-6.122,7.177-11.777,11.162-16.963c3.984-5.186,8.144-9.653,12.48-13.403c4.336-3.749,8.818-6.693,13.447-8.833
		c4.628-2.138,9.316-3.208,14.063-3.208c2.988,0,5.742,0.483,8.262,1.45c2.519,0.967,4.702,2.344,6.548,4.131
		c1.846,1.788,3.281,3.941,4.307,6.46c1.024,2.52,1.538,5.333,1.538,8.438c0,4.864-1.055,9.58-3.164,14.15
		s-5.098,8.965-8.965,13.184s-8.512,8.218-13.931,11.997c-5.42,3.779-11.44,7.281-18.062,10.503
		c3.925,7.207,7.456,13.375,10.591,18.501c3.134,5.128,5.977,9.435,8.525,12.92c2.549,3.487,4.848,6.255,6.899,8.306
		c2.051,2.052,3.94,3.604,5.669,4.658c1.728,1.055,3.354,1.744,4.878,2.065c1.523,0.323,3.046,0.483,4.57,0.483
		c3.046,0,6.21-0.468,9.492-1.406c3.281-0.937,6.592-2.167,9.932-3.691l1.67,4.57c-2.109,1.7-4.776,3.428-7.998,5.186
		c-3.223,1.758-6.636,3.37-10.239,4.834s-7.178,2.65-10.723,3.56c-3.546,0.908-6.666,1.362-9.36,1.362
		c-3.164,0-6.314-1.158-9.448-3.472c-3.135-2.314-6.504-5.902-10.107-10.767c-3.604-4.863-7.573-11.03-11.909-18.501
		c-4.337-7.471-9.316-16.392-14.941-26.763L703.625,186.398z"/>
</g>
</svg>
